<svg xmlns:dc="http://purl.org/dc/elements/1.1/" xmlns:cc="http://creativecommons.org/ns#" xmlns:rdf="http://www.w3.org/1999/02/22-rdf-syntax-ns#" xmlns:svg="http://www.w3.org/2000/svg" xmlns="http://www.w3.org/2000/svg" xmlns:sodipodi="http://sodipodi.sourceforge.net/DTD/sodipodi-0.dtd" xmlns:inkscape="http://www.inkscape.org/namespaces/inkscape" id="svg2" version="1.1" inkscape:version="0.48.5 r10040" sodipodi:docname="ResearchGate.svg" inkscape:export-filename="/home/mscipio/Documenti/GITHUB_BLOG/mscipio.github.io/images/ResearchGate.png" inkscape:export-xdpi="300" inkscape:export-ydpi="300" viewport="0 0 400px 400px">
  <metadata id="metadata8">
    <rdf:RDF>
      <cc:Work rdf:about="">
        <dc:format>image/svg+xml</dc:format>
        <dc:type rdf:resource="http://purl.org/dc/dcmitype/StillImage"/>
        <dc:title/>
      </cc:Work>
    </rdf:RDF>
  </metadata>
  <defs id="defs6"/>
  <sodipodi:namedview pagecolor="#ffffff" bordercolor="#666666" borderopacity="1" objecttolerance="10" gridtolerance="10" guidetolerance="10" inkscape:pageopacity="0" inkscape:pageshadow="2" inkscape:window-width="905" inkscape:window-height="689" id="namedview4" showgrid="false" inkscape:zoom="1.5733333" inkscape:cx="75" inkscape:cy="75" inkscape:window-x="16" inkscape:window-y="145" inkscape:window-maximized="0" inkscape:current-layer="svg2"/>
  <path style="fill:#f9f9f9" d="M 96.235678,125.55152 C 90.246887,122.9353 85.954694,118.22833 76.596027,104.01402 71.472472,96.232165 66.548975,89.25895 65.654918,88.517981 c -0.894057,-0.74097 -2.98786,-1.347218 -4.652891,-1.347218 l -3.027326,0 0,14.417987 c 0,16.08031 0.253342,16.69667 7.33146,17.83739 3.348773,0.53968 4.039626,1.11351 4.326206,3.59336 l 0.34103,2.95112 -17.765047,0 c -18.507955,0 -19.928536,-0.36636 -17.761112,-4.58054 0.533531,-1.03735 1.815069,-1.88609 2.847867,-1.88609 1.0328,0 2.955732,-0.75502 4.27318,-1.67778 2.38975,-1.67385 2.395353,-1.75786 2.395353,-35.889876 0,-35.369371 -0.171183,-36.798758 -4.407245,-36.798758 -1.001326,0 -2.949844,-0.914408 -4.330032,-2.032017 -2.197473,-1.779405 -2.322193,-2.257631 -1.003267,-3.846838 1.342108,-1.617143 3.979669,-1.777341 24.214963,-1.470747 l 22.708784,0.344071 5.927758,3.357534 c 12.635423,7.156813 15.575551,23.210544 6.356161,34.706107 -2.233364,2.784763 -5.810474,5.497629 -11.623221,8.815001 -1.898025,1.083209 3.169291,9.623628 13.198894,22.245313 5.552167,6.9871 8.191377,9.34745 12.990167,11.61764 6.0352,2.8551 7.14312,4.46732 4.72902,6.88143 -1.7118,1.71179 -12.40778,1.57977 -16.489942,-0.20355 z M 76.313682,76.582719 c 5.21425,-2.729525 8.904031,-9.975343 8.254586,-16.209984 C 83.589013,50.971792 77.10381,46.219754 65.249675,46.217024 l -7.274974,-0.0017 0,16.16661 0,16.16661 7.291798,0 c 4.966135,0 8.48954,-0.626991 11.047183,-1.965851 z M 115.15499,56.814402 c -6.75684,-4.590281 -8.14158,-8.409369 -8.14158,-22.454566 0,-13.999737 1.39705,-17.889178 8.03152,-22.360148 7.24948,-4.8854187 19.71538,-2.5740084 24.36164,4.517102 2.24034,3.419187 1.50631,5.496002 -2.27823,6.445863 -2.29058,0.574898 -3.55926,0.134063 -5.80433,-2.016862 -3.67632,-3.522133 -9.60128,-3.750433 -12.55749,-0.483864 -1.75667,1.941116 -2.05314,3.97797 -2.05314,14.106286 0,11.140273 0.14989,11.958953 2.54438,13.89791 5.21131,4.219853 12.45499,1.508637 13.73925,-5.142421 0.6446,-3.338243 0.55046,-3.439727 -3.4995,-3.772209 -3.97291,-0.326155 -4.16193,-0.513008 -4.16193,-4.113883 l 0,-3.772209 7.37198,-0.320899 c 9.92616,-0.432079 10.86313,0.436752 10.03499,9.305162 -1.14104,12.219086 -6.18946,17.598536 -17.14915,18.273609 -5.6898,0.35047 -7.29592,0.02598 -10.43841,-2.108871 z" id="path2989" inkscape:connector-curvature="0"/>
</svg>