<?xml version="1.0" encoding="UTF-8" standalone="no"?>
<!-- Created with Inkscape (http://www.inkscape.org/) -->

<svg
   xmlns:dc="http://purl.org/dc/elements/1.1/"
   xmlns:cc="http://creativecommons.org/ns#"
   xmlns:rdf="http://www.w3.org/1999/02/22-rdf-syntax-ns#"
   xmlns:svg="http://www.w3.org/2000/svg"
   xmlns="http://www.w3.org/2000/svg"
   version="1.1"
   width="30px"
   height="30px"
   id="svg2">
  <metadata
     id="metadata8">
    <rdf:RDF>
      <cc:Work
         rdf:about="">
        <dc:format>image/svg+xml</dc:format>
        <dc:type
           rdf:resource="http://purl.org/dc/dcmitype/StillImage" />
        <dc:title></dc:title>
      </cc:Work>
    </rdf:RDF>
  </metadata>
  <defs
     id="defs6" />
  <path
     d="m 85.852892,147.42229 c -7.575369,-3.30932 -13.00467,-9.26328 -24.842678,-27.24331 -6.480911,-9.84346 -12.708763,-18.66405 -13.839678,-19.60132 -1.130914,-0.937277 -3.779418,-1.704135 -5.885557,-1.704135 l -3.829339,0 0,18.237665 c 0,20.34038 0.320459,21.12004 9.273745,22.56296 4.235945,0.68265 5.109822,1.40851 5.472324,4.54532 l 0.431377,3.73295 -22.471446,0 c -23.4111675,0 -25.2080952,-0.46342 -22.4664669,-5.79403 0.6748764,-1.31217 2.2959256,-2.38576 3.6023369,-2.38576 1.306414,0 3.738778,-0.95505 5.405251,-2.12227 3.022853,-2.1173 3.029941,-2.22357 3.029941,-45.39799 0,-44.739588 -0.216534,-46.547654 -5.574833,-46.547654 -1.266602,0 -3.731331,-1.156659 -5.4771639,-2.570349 C 5.9010673,40.883554 5.7433059,40.278634 7.411648,38.268407 9.1093128,36.222843 12.445629,36.020204 38.04175,36.408023 l 28.7249,0.435224 7.498168,4.247027 c 15.982858,9.052828 19.701898,29.359589 8.040064,43.900609 -2.825036,3.522516 -7.349812,6.954087 -14.702499,11.150312 -2.400858,1.370179 4.008915,12.173165 16.695607,28.138645 7.023073,8.83815 10.361474,11.82382 16.43158,14.69544 7.63408,3.61148 9.03551,5.65082 5.98186,8.70449 -2.1653,2.16529 -15.694911,1.99828 -20.858538,-0.25748 z M 60.653068,85.480451 C 67.248702,82.027808 71.915997,72.862394 71.094498,64.976043 69.855814,53.084558 61.652521,47.073589 46.657934,47.070136 l -9.202294,-0.0021 0,20.449543 0,20.449543 9.223575,0 c 6.281786,0 10.738628,-0.793097 13.973853,-2.486654 z M 109.7844,60.47502 C 101.2375,54.668661 99.485907,49.837802 99.485907,32.071687 c 0,-17.708613 1.767163,-22.6284623 10.159263,-28.2839023 9.17006,-6.1796863 24.93848,-3.25592653 30.81564,5.7137939 2.83387,4.3250134 1.90537,6.9520274 -2.88178,8.1535304 -2.89741,0.727202 -4.5022,0.169579 -7.34205,-2.551178 -4.65026,-4.455233 -12.14488,-4.744016 -15.88427,-0.612052 -2.22205,2.455365 -2.59707,5.031832 -2.59707,17.843388 0,14.091606 0.1896,15.127174 3.21845,17.579809 6.59191,5.337796 15.75463,1.908312 17.37912,-6.504775 0.81537,-4.222625 0.69628,-4.350995 -4.42661,-4.771559 -5.02543,-0.412562 -5.26453,-0.648917 -5.26453,-5.203753 l 0,-4.771559 9.32501,-0.405914 c 12.55584,-0.546547 13.74104,0.552459 12.6935,11.770329 -1.44333,15.456222 -7.8292,22.260822 -21.69238,23.114738 -7.19717,0.443318 -9.22879,0.03287 -13.2038,-2.667563 z"
     id="path2989"
     style="fill:#f9f9f9" />
</svg>
